<svg width="257" height="257" viewBox="0 0 257 257" fill="none" xmlns="http://www.w3.org/2000/svg">
<path fill-rule="evenodd" clip-rule="evenodd" d="M7.26758 88.515C3.07142 101.184 0.800049 114.726 0.800049 128.8C0.800049 199.491 58.1076 256.8 128.8 256.8C199.491 256.8 256.8 199.491 256.8 128.8C256.8 58.1073 199.491 0.799805 128.8 0.799805C127.725 0.799805 126.653 0.812918 125.581 0.839478C125.571 28.6625 113.162 53.587 93.5776 70.3886C103.859 64.1761 115.914 60.6011 128.8 60.6011C166.464 60.6011 196.998 91.1358 196.998 128.8C196.998 166.464 166.464 196.998 128.8 196.998C91.136 196.998 60.6013 166.464 60.6013 128.8C60.6013 108.685 69.3101 90.6046 83.1626 78.1208C68.9412 87.1966 52.0487 92.4542 33.9277 92.4542C24.6551 92.4542 15.7037 91.0782 7.26758 88.515Z" fill="#F5F5F5"/>
</svg>
